<mxfile host="65bd71144e">
    <diagram id="5YnazLtdPsFA0qLO9tkI" name="Hybrid Anomaly Detection Architecture">
        <mxGraphModel dx="875" dy="480" grid="1" gridSize="10" guides="1" tooltips="1" connect="1" arrows="1" fold="1" page="1" pageScale="1" pageWidth="1200" pageHeight="1920" math="0" shadow="0">
            <root>
                <mxCell id="0"/>
                <mxCell id="1" parent="0"/>
                <mxCell id="2" value="&lt;b&gt;&lt;font style=&quot;font-size: 22px;&quot;&gt;&amp;nbsp;Anomaly Detection Model&lt;br&gt;5-Layer Architecture&lt;/font&gt;&lt;/b&gt;" style="text;html=1;strokeColor=none;fillColor=none;align=center;verticalAlign=middle;whiteSpace=wrap;rounded=0;fontSize=16;fontStyle=0;" parent="1" vertex="1">
                    <mxGeometry x="40" y="30" width="720" height="30" as="geometry"/>
                </mxCell>
                <mxCell id="3" value="" style="rounded=1;whiteSpace=wrap;html=1;fillColor=#dae8fc;strokeColor=#6c8ebf;strokeWidth=2;" parent="1" vertex="1">
                    <mxGeometry x="40" y="80" width="727" height="120" as="geometry"/>
                </mxCell>
                <mxCell id="4" value="&lt;b&gt;&lt;font style=&quot;font-size: 18px;&quot;&gt;Layer 1: Data Preprocessing&lt;/font&gt;&lt;/b&gt;" style="text;html=1;strokeColor=none;fillColor=none;align=left;verticalAlign=top;whiteSpace=wrap;rounded=0;fontSize=12;fontStyle=0;" parent="1" vertex="1">
                    <mxGeometry x="60" y="85" width="250" height="20" as="geometry"/>
                </mxCell>
                <mxCell id="5" value="&lt;b&gt;&lt;font style=&quot;font-size: 12px;&quot;&gt;Data Ingestion&lt;/font&gt;&lt;/b&gt;" style="rounded=1;whiteSpace=wrap;html=1;fillColor=#fff2cc;strokeColor=#d6b656;fontSize=10;" parent="1" vertex="1">
                    <mxGeometry x="70" y="125" width="100" height="50" as="geometry"/>
                </mxCell>
                <mxCell id="6" value="&lt;b&gt;&lt;font style=&quot;font-size: 12px;&quot;&gt;Data Cleaning&lt;/font&gt;&lt;/b&gt;" style="rounded=1;whiteSpace=wrap;html=1;fillColor=#fff2cc;strokeColor=#d6b656;fontSize=10;" parent="1" vertex="1">
                    <mxGeometry x="220" y="125" width="100" height="50" as="geometry"/>
                </mxCell>
                <mxCell id="7" value="&lt;b&gt;&lt;font style=&quot;font-size: 12px;&quot;&gt;Feature Engineering&lt;/font&gt;&lt;/b&gt;" style="rounded=1;whiteSpace=wrap;html=1;fillColor=#fff2cc;strokeColor=#d6b656;fontSize=10;" parent="1" vertex="1">
                    <mxGeometry x="360" y="125" width="100" height="50" as="geometry"/>
                </mxCell>
                <mxCell id="8" value="&lt;b&gt;&lt;font style=&quot;font-size: 12px;&quot;&gt;Normalization&lt;/font&gt;&lt;/b&gt;" style="rounded=1;whiteSpace=wrap;html=1;fillColor=#fff2cc;strokeColor=#d6b656;fontSize=10;" parent="1" vertex="1">
                    <mxGeometry x="510" y="125" width="100" height="50" as="geometry"/>
                </mxCell>
                <mxCell id="9" value="" style="rounded=1;whiteSpace=wrap;html=1;fillColor=#e1d5e7;strokeColor=#9673a6;strokeWidth=2;" parent="1" vertex="1">
                    <mxGeometry x="43" y="229" width="720" height="170" as="geometry"/>
                </mxCell>
                <mxCell id="10" value="&lt;b&gt;Layer 2: Multi-scale Forecasting&lt;/b&gt;" style="text;html=1;strokeColor=none;fillColor=none;align=left;verticalAlign=top;whiteSpace=wrap;rounded=0;fontSize=18;fontStyle=0;" parent="1" vertex="1">
                    <mxGeometry x="60" y="234" width="340" height="20" as="geometry"/>
                </mxCell>
                <mxCell id="11" value="&lt;b&gt;&lt;font style=&quot;font-size: 16px;&quot;&gt;LSTM Model&lt;/font&gt;&lt;/b&gt;" style="rounded=1;whiteSpace=wrap;html=1;fillColor=#f8cecc;strokeColor=#b85450;fontSize=10;" parent="1" vertex="1">
                    <mxGeometry x="70" y="269" width="140" height="50" as="geometry"/>
                </mxCell>
                <mxCell id="12" value="&lt;b&gt;&lt;font style=&quot;font-size: 16px;&quot;&gt;Transformer&lt;/font&gt;&lt;/b&gt;" style="rounded=1;whiteSpace=wrap;html=1;fillColor=#f8cecc;strokeColor=#b85450;fontSize=10;" parent="1" vertex="1">
                    <mxGeometry x="250" y="269" width="160" height="50" as="geometry"/>
                </mxCell>
                <mxCell id="13" value="&lt;b&gt;&lt;font style=&quot;font-size: 16px;&quot;&gt;ARIMA&lt;/font&gt;&lt;/b&gt;" style="rounded=1;whiteSpace=wrap;html=1;fillColor=#f8cecc;strokeColor=#b85450;fontSize=10;" parent="1" vertex="1">
                    <mxGeometry x="440" y="269" width="140" height="50" as="geometry"/>
                </mxCell>
                <mxCell id="14" value="&lt;b&gt;&lt;font style=&quot;font-size: 16px;&quot;&gt;Prophet&lt;/font&gt;&lt;/b&gt;" style="rounded=1;whiteSpace=wrap;html=1;fillColor=#f8cecc;strokeColor=#b85450;fontSize=10;" parent="1" vertex="1">
                    <mxGeometry x="610" y="269" width="140" height="50" as="geometry"/>
                </mxCell>
                <mxCell id="15" value="&lt;b&gt;Ensemble Strategy&lt;/b&gt;&lt;br&gt;• Weighted Average&lt;br&gt;• Performance Based&lt;br&gt;• Confidence Int." style="rounded=1;whiteSpace=wrap;html=1;fillColor=#d5e8d4;strokeColor=#82b366;fontSize=10;" parent="1" vertex="1">
                    <mxGeometry x="190" y="329" width="110" height="60" as="geometry"/>
                </mxCell>
                <mxCell id="16" value="&lt;font&gt;&lt;b style=&quot;&quot;&gt;Time Scales&lt;/b&gt;&lt;br&gt;• Short (1-6h)&lt;br&gt;• Medium (6-24h)&lt;br&gt;• Long (24-48h)&lt;/font&gt;" style="rounded=1;whiteSpace=wrap;html=1;fillColor=#d5e8d4;strokeColor=#82b366;fontSize=10;" parent="1" vertex="1">
                    <mxGeometry x="370" y="329" width="115" height="60" as="geometry"/>
                </mxCell>
                <mxCell id="17" value="" style="rounded=1;whiteSpace=wrap;html=1;fillColor=#ffe6cc;strokeColor=#d79b00;strokeWidth=2;" parent="1" vertex="1">
                    <mxGeometry x="40" y="441" width="720" height="198" as="geometry"/>
                </mxCell>
                <mxCell id="18" value="&lt;b&gt;&lt;font style=&quot;font-size: 18px;&quot;&gt;Layer 3: Contextual Detection&lt;/font&gt;&lt;/b&gt;" style="text;html=1;strokeColor=none;fillColor=none;align=left;verticalAlign=top;whiteSpace=wrap;rounded=0;fontSize=12;fontStyle=0;" parent="1" vertex="1">
                    <mxGeometry x="60" y="454" width="300" height="20" as="geometry"/>
                </mxCell>
                <mxCell id="19" value="&lt;b&gt;&lt;font style=&quot;font-size: 16px;&quot;&gt;Isolation Forest&lt;/font&gt;&lt;/b&gt;" style="rounded=1;whiteSpace=wrap;html=1;fillColor=#e6f3ff;strokeColor=#0066cc;fontSize=10;" parent="1" vertex="1">
                    <mxGeometry x="70" y="488" width="140" height="60" as="geometry"/>
                </mxCell>
                <mxCell id="20" value="&lt;b&gt;&lt;font style=&quot;font-size: 16px;&quot;&gt;LSTM Autoencoder&lt;/font&gt;&lt;/b&gt;" style="rounded=1;whiteSpace=wrap;html=1;fillColor=#e6f3ff;strokeColor=#0066cc;fontSize=10;" parent="1" vertex="1">
                    <mxGeometry x="245" y="488" width="170" height="60" as="geometry"/>
                </mxCell>
                <mxCell id="21" value="&lt;b&gt;&lt;font style=&quot;font-size: 16px;&quot;&gt;One-Class SVM&lt;/font&gt;&lt;/b&gt;" style="rounded=1;whiteSpace=wrap;html=1;fillColor=#e6f3ff;strokeColor=#0066cc;fontSize=10;" parent="1" vertex="1">
                    <mxGeometry x="440" y="488" width="140" height="60" as="geometry"/>
                </mxCell>
                <mxCell id="22" value="&lt;b&gt;&lt;font style=&quot;font-size: 16px;&quot;&gt;Statistical Control&lt;/font&gt;&lt;/b&gt;" style="rounded=1;whiteSpace=wrap;html=1;fillColor=#e6f3ff;strokeColor=#0066cc;fontSize=10;" parent="1" vertex="1">
                    <mxGeometry x="600" y="488" width="150" height="60" as="geometry"/>
                </mxCell>
                <mxCell id="23" value="&lt;b&gt;Contextual Analysis&lt;/b&gt;&lt;br&gt;• Temporal&lt;br&gt;• Operational&lt;br&gt;• Historical" style="rounded=1;whiteSpace=wrap;html=1;fillColor=#f0f0f0;strokeColor=#666666;fontSize=10;" parent="1" vertex="1">
                    <mxGeometry x="180" y="559" width="110" height="60" as="geometry"/>
                </mxCell>
                <mxCell id="24" value="&lt;b&gt;Anomaly Scoring&lt;/b&gt;&lt;br&gt;• Ensemble Consensus&lt;br&gt;• Adaptive Threshold" style="rounded=1;whiteSpace=wrap;html=1;fillColor=#f0f0f0;strokeColor=#666666;fontSize=10;" parent="1" vertex="1">
                    <mxGeometry x="360" y="559" width="110" height="60" as="geometry"/>
                </mxCell>
                <mxCell id="25" value="&lt;b&gt;Severity Levels&lt;/b&gt;&lt;br&gt;• Low (0.3-0.5)&lt;br&gt;• Medium (0.5-0.7)&lt;br&gt;• High (0.7-0.9)&lt;br&gt;• Critical (0.9-1.0)" style="rounded=1;whiteSpace=wrap;html=1;fillColor=#ffcccc;strokeColor=#cc0000;fontSize=10;" parent="1" vertex="1">
                    <mxGeometry x="530" y="559" width="130" height="71" as="geometry"/>
                </mxCell>
                <mxCell id="26" value="" style="rounded=1;whiteSpace=wrap;html=1;fillColor=#f3e2f3;strokeColor=#9673a6;strokeWidth=2;" parent="1" vertex="1">
                    <mxGeometry x="40" y="679" width="727" height="120" as="geometry"/>
                </mxCell>
                <mxCell id="27" value="&lt;b&gt;Layer 4: Active Learning&lt;/b&gt;" style="text;html=1;strokeColor=none;fillColor=none;align=left;verticalAlign=top;whiteSpace=wrap;rounded=0;fontSize=18;fontStyle=0;" parent="1" vertex="1">
                    <mxGeometry x="60" y="684" width="230" height="20" as="geometry"/>
                </mxCell>
                <mxCell id="28" value="&lt;b&gt;Uncertainty Sampling&lt;/b&gt;&lt;br&gt;• Entropy-based&lt;br&gt;• Diversity" style="rounded=1;whiteSpace=wrap;html=1;fillColor=#d4edda;strokeColor=#28a745;fontSize=10;" parent="1" vertex="1">
                    <mxGeometry x="90" y="719" width="100" height="60" as="geometry"/>
                </mxCell>
                <mxCell id="29" value="&lt;b&gt;Query by Committee&lt;/b&gt;&lt;br&gt;• Size=5&lt;br&gt;• Vote Entropy" style="rounded=1;whiteSpace=wrap;html=1;fillColor=#d4edda;strokeColor=#28a745;fontSize=10;" parent="1" vertex="1">
                    <mxGeometry x="230" y="719" width="100" height="60" as="geometry"/>
                </mxCell>
                <mxCell id="30" value="&lt;b&gt;Feedback Collection&lt;/b&gt;&lt;br&gt;• Expert Annotation&lt;br&gt;• User Feedback" style="rounded=1;whiteSpace=wrap;html=1;fillColor=#cce5ff;strokeColor=#0066cc;fontSize=10;" parent="1" vertex="1">
                    <mxGeometry x="360" y="719" width="100" height="60" as="geometry"/>
                </mxCell>
                <mxCell id="31" value="&lt;b&gt;Model Updates&lt;/b&gt;&lt;br&gt;• Incremental&lt;br&gt;• Transfer Learning" style="rounded=1;whiteSpace=wrap;html=1;fillColor=#cce5ff;strokeColor=#0066cc;fontSize=10;" parent="1" vertex="1">
                    <mxGeometry x="510" y="719" width="100" height="60" as="geometry"/>
                </mxCell>
                <mxCell id="32" value="&lt;b&gt;Knowledge Retention&lt;/b&gt;&lt;br&gt;• Memory Mgmt&lt;br&gt;• Buffer=10k" style="rounded=1;whiteSpace=wrap;html=1;fillColor=#fff3cd;strokeColor=#ffc107;fontSize=10;" parent="1" vertex="1">
                    <mxGeometry x="640" y="719" width="100" height="60" as="geometry"/>
                </mxCell>
                <mxCell id="33" value="" style="rounded=1;whiteSpace=wrap;html=1;fillColor=#e2f0d9;strokeColor=#82b366;strokeWidth=2;" parent="1" vertex="1">
                    <mxGeometry x="36.5" y="832" width="727" height="170" as="geometry"/>
                </mxCell>
                <mxCell id="34" value="&lt;b&gt;Layer 5: Explainable Decision Support&lt;/b&gt;" style="text;html=1;strokeColor=none;fillColor=none;align=left;verticalAlign=top;whiteSpace=wrap;rounded=0;fontSize=18;fontStyle=0;" parent="1" vertex="1">
                    <mxGeometry x="60" y="832" width="380" height="20" as="geometry"/>
                </mxCell>
                <mxCell id="35" value="&lt;b&gt;LIME&lt;/b&gt;&lt;br&gt;• Local&lt;br&gt;• 10 Features" style="rounded=1;whiteSpace=wrap;html=1;fillColor=#ffffcc;strokeColor=#ffcc00;fontSize=10;" parent="1" vertex="1">
                    <mxGeometry x="70" y="872" width="80" height="50" as="geometry"/>
                </mxCell>
                <mxCell id="36" value="&lt;b&gt;SHAP&lt;/b&gt;&lt;br&gt;• Global/Local&lt;br&gt;• Interactions" style="rounded=1;whiteSpace=wrap;html=1;fillColor=#ffffcc;strokeColor=#ffcc00;fontSize=10;" parent="1" vertex="1">
                    <mxGeometry x="170" y="872" width="80" height="50" as="geometry"/>
                </mxCell>
                <mxCell id="37" value="&lt;b&gt;Attention&lt;/b&gt;&lt;br&gt;• Heatmaps&lt;br&gt;• All Layers" style="rounded=1;whiteSpace=wrap;html=1;fillColor=#ffffcc;strokeColor=#ffcc00;fontSize=10;" parent="1" vertex="1">
                    <mxGeometry x="270" y="872" width="80" height="50" as="geometry"/>
                </mxCell>
                <mxCell id="38" value="&lt;b&gt;Counterfactual&lt;/b&gt;&lt;br&gt;• What-if&lt;br&gt;• 5 Scenarios" style="rounded=1;whiteSpace=wrap;html=1;fillColor=#ffffcc;strokeColor=#ffcc00;fontSize=10;" parent="1" vertex="1">
                    <mxGeometry x="370" y="872" width="80" height="50" as="geometry"/>
                </mxCell>
                <mxCell id="39" value="&lt;b&gt;Recommendation&lt;/b&gt;&lt;br&gt;• Rule-based&lt;br&gt;• ML-based" style="rounded=1;whiteSpace=wrap;html=1;fillColor=#e6ffe6;strokeColor=#66cc66;fontSize=10;" parent="1" vertex="1">
                    <mxGeometry x="470" y="872" width="90" height="50" as="geometry"/>
                </mxCell>
                <mxCell id="40" value="&lt;b&gt;Visualization&lt;/b&gt;&lt;br&gt;• Timeline&lt;br&gt;• Heatmaps" style="rounded=1;whiteSpace=wrap;html=1;fillColor=#e6ffe6;strokeColor=#66cc66;fontSize=10;" parent="1" vertex="1">
                    <mxGeometry x="580" y="872" width="90" height="50" as="geometry"/>
                </mxCell>
                <mxCell id="41" value="&lt;b&gt;Reporting System&lt;/b&gt;&lt;br&gt;• Daily Summary&lt;br&gt;• Performance" style="rounded=1;whiteSpace=wrap;html=1;fillColor=#ffe6e6;strokeColor=#ff9999;fontSize=10;" parent="1" vertex="1">
                    <mxGeometry x="70" y="932" width="100" height="60" as="geometry"/>
                </mxCell>
                <mxCell id="42" value="&lt;b&gt;Alert Channels&lt;/b&gt;&lt;br&gt;• Email&lt;br&gt;• Slack&lt;br&gt;• Dashboard" style="rounded=1;whiteSpace=wrap;html=1;fillColor=#ffe6e6;strokeColor=#ff9999;fontSize=10;" parent="1" vertex="1">
                    <mxGeometry x="190" y="932" width="100" height="60" as="geometry"/>
                </mxCell>
                <mxCell id="43" value="" style="edgeStyle=orthogonalEdgeStyle;rounded=0;orthogonalLoop=1;jettySize=auto;html=1;strokeWidth=2;strokeColor=#666666;endArrow=classic;endFill=1;" parent="1" edge="1">
                    <mxGeometry relative="1" as="geometry">
                        <mxPoint x="401" y="200" as="sourcePoint"/>
                        <mxPoint x="400" y="229" as="targetPoint"/>
                    </mxGeometry>
                </mxCell>
                <mxCell id="44" value="" style="edgeStyle=orthogonalEdgeStyle;rounded=0;orthogonalLoop=1;jettySize=auto;html=1;strokeWidth=2;strokeColor=#666666;endArrow=classic;endFill=1;exitX=0.495;exitY=1.003;exitDx=0;exitDy=0;exitPerimeter=0;entryX=0.5;entryY=0;entryDx=0;entryDy=0;" parent="1" source="9" target="17" edge="1">
                    <mxGeometry relative="1" as="geometry">
                        <mxPoint x="400" y="390" as="targetPoint"/>
                    </mxGeometry>
                </mxCell>
                <mxCell id="45" value="" style="edgeStyle=orthogonalEdgeStyle;rounded=0;orthogonalLoop=1;jettySize=auto;html=1;strokeWidth=2;strokeColor=#666666;endArrow=classic;endFill=1;entryX=0.495;entryY=0.009;entryDx=0;entryDy=0;entryPerimeter=0;" parent="1" source="17" target="26" edge="1">
                    <mxGeometry relative="1" as="geometry"/>
                </mxCell>
                <mxCell id="46" value="" style="edgeStyle=orthogonalEdgeStyle;rounded=0;orthogonalLoop=1;jettySize=auto;html=1;strokeWidth=2;strokeColor=#666666;endArrow=classic;endFill=1;" parent="1" source="26" target="33" edge="1">
                    <mxGeometry relative="1" as="geometry">
                        <mxPoint x="400" y="740" as="sourcePoint"/>
                        <Array as="points"/>
                    </mxGeometry>
                </mxCell>
                <mxCell id="47" value="&lt;b&gt;&lt;font style=&quot;font-size: 12px;&quot;&gt;Learning Feedback&lt;/font&gt;&lt;/b&gt;" style="edgeStyle=orthogonalEdgeStyle;rounded=0;orthogonalLoop=1;jettySize=auto;html=1;strokeWidth=2;strokeColor=#ff6600;dashed=1;fontSize=10;endArrow=classic;endFill=1;entryX=1;entryY=0.5;entryDx=0;entryDy=0;" parent="1" edge="1">
                    <mxGeometry relative="1" as="geometry">
                        <Array as="points">
                            <mxPoint x="840" y="920"/>
                            <mxPoint x="840" y="120"/>
                        </Array>
                        <mxPoint x="767" y="920" as="sourcePoint"/>
                        <mxPoint x="767" y="120" as="targetPoint"/>
                    </mxGeometry>
                </mxCell>
                <mxCell id="52" value="&lt;font style=&quot;font-size: 12px;&quot;&gt;&lt;b style=&quot;&quot;&gt;Performance Targets&lt;/b&gt;&lt;br&gt;• Latency: &amp;lt;500ms&lt;br&gt;• Throughput: &amp;gt;1k/sec&lt;br&gt;• Precision: &amp;gt;85%&lt;br&gt;• Recall: &amp;gt;80%&lt;/font&gt;" style="rounded=1;whiteSpace=wrap;html=1;fillColor=#f0f8ff;strokeColor=#4169e1;strokeWidth=1;fontSize=9;" parent="1" vertex="1">
                    <mxGeometry x="640" y="95" width="120" height="90" as="geometry"/>
                </mxCell>
                <mxCell id="53" value="&lt;font style=&quot;font-size: 10px;&quot;&gt;&lt;b&gt;Integration Points&lt;/b&gt;&lt;br&gt;• Input: Kafka, REST&lt;br&gt;• Output: ES, DB&lt;br&gt;• Security: OAuth2&lt;br&gt;• Monitoring&lt;/font&gt;" style="rounded=1;whiteSpace=wrap;html=1;fillColor=#f0f8ff;strokeColor=#4169e1;strokeWidth=1;fontSize=9;" parent="1" vertex="1">
                    <mxGeometry x="520" y="329" width="140" height="61" as="geometry"/>
                </mxCell>
            </root>
        </mxGraphModel>
    </diagram>
</mxfile>